<svg width="37" height="36" viewBox="0 0 37 36" fill="none" xmlns="http://www.w3.org/2000/svg">
<path d="M11.3462 12.9002C6.97376 17.4691 19.3742 30.1705 24.1621 25.1723L32.1897 32.8563C30.1686 34.967 28.3762 36.4469 25.0932 35.6587C15.9781 33.4689 3.03969 21.0854 0.697207 12.1339C-0.118662 9.0244 1.35102 7.28292 3.32423 5.21931C4.85686 6.6882 9.8079 11.4282 11.3462 12.9002ZM13.4762 12.0093C13.0035 12.5026 12.2177 12.523 11.7188 12.0472L4.15552 4.8017C3.66224 4.32907 3.64189 3.54323 4.11762 3.0443L6.31722 0.748801C6.78985 0.255517 7.57569 0.235175 8.07462 0.710902L15.6423 7.95517C16.1355 8.4278 16.1559 9.21365 15.6789 9.7082L13.4762 12.0093ZM34.1488 31.8019C33.6761 32.2952 32.8903 32.3155 32.3914 31.8398L24.8281 24.5943C24.3348 24.1216 24.3145 23.3358 24.7902 22.8369L26.9898 20.5414C27.4624 20.0481 28.2483 20.0277 28.7472 20.5035L36.3148 27.7477C36.8081 28.2204 36.8285 29.0062 36.3527 29.5051L34.1488 31.8019Z" fill="white"/>
</svg>
