<svg width="39" height="39" viewBox="0 0 39 39" fill="none" xmlns="http://www.w3.org/2000/svg">
<path d="M28.3931 11.3306L30.1069 13.0444L15.8438 27.3076L8.89307 20.3569L10.6069 18.6431L15.8438 23.8799L28.3931 11.3306ZM19.5 0C21.29 0 23.0166 0.228516 24.6797 0.685547C26.3428 1.14258 27.8979 1.79639 29.3452 2.64697C30.7925 3.49756 32.1064 4.51318 33.2871 5.69385C34.4678 6.87451 35.4834 8.19482 36.334 9.65479C37.1846 11.1147 37.8384 12.6699 38.2954 14.3203C38.7524 15.9707 38.9873 17.6973 39 19.5C39 21.29 38.7715 23.0166 38.3145 24.6797C37.8574 26.3428 37.2036 27.8979 36.353 29.3452C35.5024 30.7925 34.4868 32.1064 33.3062 33.2871C32.1255 34.4678 30.8052 35.4834 29.3452 36.334C27.8853 37.1846 26.3301 37.8384 24.6797 38.2954C23.0293 38.7524 21.3027 38.9873 19.5 39C17.71 39 15.9834 38.7715 14.3203 38.3145C12.6572 37.8574 11.1021 37.2036 9.65479 36.353C8.20752 35.5024 6.89355 34.4868 5.71289 33.3062C4.53223 32.1255 3.5166 30.8052 2.66602 29.3452C1.81543 27.8853 1.16162 26.3364 0.70459 24.6987C0.247559 23.061 0.0126953 21.3281 0 19.5C0 17.71 0.228516 15.9834 0.685547 14.3203C1.14258 12.6572 1.79639 11.1021 2.64697 9.65479C3.49756 8.20752 4.51318 6.89355 5.69385 5.71289C6.87451 4.53223 8.19482 3.5166 9.65479 2.66602C11.1147 1.81543 12.6636 1.16162 14.3013 0.70459C15.939 0.247559 17.6719 0.0126953 19.5 0ZM19.5 36.5625C21.0615 36.5625 22.5659 36.3594 24.0132 35.9531C25.4604 35.5469 26.8188 34.9756 28.0884 34.2393C29.3579 33.5029 30.5132 32.6079 31.5542 31.5542C32.5952 30.5005 33.4839 29.3516 34.2202 28.1074C34.9565 26.8633 35.5342 25.5049 35.9531 24.0322C36.3721 22.5596 36.5752 21.0488 36.5625 19.5C36.5625 17.9385 36.3594 16.4341 35.9531 14.9868C35.5469 13.5396 34.9756 12.1812 34.2393 10.9116C33.5029 9.64209 32.6079 8.48682 31.5542 7.4458C30.5005 6.40479 29.3516 5.51611 28.1074 4.77979C26.8633 4.04346 25.5049 3.46582 24.0322 3.04688C22.5596 2.62793 21.0488 2.4248 19.5 2.4375C17.9385 2.4375 16.4341 2.64062 14.9868 3.04688C13.5396 3.45312 12.1812 4.02441 10.9116 4.76074C9.64209 5.49707 8.48682 6.39209 7.4458 7.4458C6.40479 8.49951 5.51611 9.64844 4.77979 10.8926C4.04346 12.1367 3.46582 13.4951 3.04688 14.9678C2.62793 16.4404 2.4248 17.9512 2.4375 19.5C2.4375 21.0615 2.64062 22.5659 3.04688 24.0132C3.45312 25.4604 4.02441 26.8188 4.76074 28.0884C5.49707 29.3579 6.39209 30.5132 7.4458 31.5542C8.49951 32.5952 9.64844 33.4839 10.8926 34.2202C12.1367 34.9565 13.4951 35.5342 14.9678 35.9531C16.4404 36.3721 17.9512 36.5752 19.5 36.5625Z" fill="#ED5F38"/>
</svg>
