<svg width="36" height="44" viewBox="0 0 36 44" fill="none" xmlns="http://www.w3.org/2000/svg">
<path d="M28.7746 17.971C28.7746 21.9928 28.7703 26.0189 28.7746 30.0407C28.779 32.9221 26.9733 35.2116 24.161 35.838C23.7852 35.92 23.3878 35.9719 23.0033 35.9719C17.2838 35.9805 11.5643 35.9805 5.84481 35.9719C3.01962 35.9676 0.721455 34.11 0.142593 31.3539C0.0518762 30.9306 0.0129974 30.49 0.0129974 30.058C0.0043577 23.5436 0.0129973 17.025 3.77072e-05 10.5106C-0.00428215 9.46953 0.362906 8.57099 0.928808 7.7459C2.47964 5.48661 4.49701 3.69819 6.73038 2.15168C7.9529 1.30499 9.2143 0.518773 10.6787 0.147265C11.0243 0.0608676 11.3872 0.00902924 11.7414 0.00902924C15.4997 0.000389521 19.2537 -0.00393034 23.0076 0.00470938C26.2216 0.0133491 28.7617 2.57935 28.7703 5.80628C28.779 9.86263 28.7746 13.919 28.7746 17.971ZM2.84683 10.0268C2.83387 10.1953 2.82091 10.2946 2.82091 10.3983C2.82091 17.0682 2.81659 23.7337 2.82523 30.4036C2.82523 31.8853 4.15142 33.1683 5.65042 33.1683C11.4606 33.1726 17.2752 33.1683 23.0854 33.1683C23.2798 33.1683 23.4785 33.1596 23.6642 33.1121C25.0682 32.7752 25.9581 31.6347 25.9581 30.1703V5.70693C25.9581 4.10426 24.6794 2.82126 23.0724 2.82126C19.3617 2.81694 15.6552 2.82126 11.9445 2.82126C11.8019 2.82126 11.655 2.83854 11.4693 2.84718C11.4693 3.07613 11.4736 3.27052 11.4693 3.4606C11.4434 4.54056 11.4563 5.62053 11.3742 6.69617C11.2533 8.30748 10.2943 9.44361 8.76936 9.81511C8.22073 9.94903 7.64619 10.0052 7.08029 10.0181C5.68498 10.0441 4.28966 10.0268 2.84683 10.0268ZM7.23581 37.4925C8.11706 37.4925 8.93783 37.4838 9.76292 37.5054C9.85364 37.5097 10.0135 37.6653 10.0221 37.7646C10.1733 39.255 11.547 40.4127 13.1929 40.3954C18.8519 40.3393 24.5152 40.3781 30.1786 40.3781C31.6387 40.3781 32.7835 39.4839 33.1161 38.08C33.1593 37.8942 33.1679 37.6955 33.1679 37.5011C33.1723 29.2847 33.1723 21.0727 33.1679 12.8563C33.1679 11.4653 32.1009 10.2514 30.6711 10.0527C30.3471 10.0095 30.2779 9.89719 30.2823 9.60776C30.2952 8.83019 30.2866 8.05261 30.2866 7.2448C31.3622 7.25344 32.3169 7.51263 33.1852 8.04829C34.9952 9.17577 35.9629 10.8346 35.9715 12.9513C36.0018 21.1202 36.0147 29.289 35.9758 37.4579C35.9586 40.8576 33.3148 42.9744 30.9043 43.0996C28.9129 43.2033 26.9128 43.1817 24.9213 43.186C20.9557 43.1947 16.9901 43.212 13.0287 43.1774C10.9163 43.1601 9.24454 42.2486 8.09114 40.4473C7.52524 39.5746 7.26604 38.6027 7.23581 37.4925ZM14.342 15.0724C11.8062 15.0724 9.26614 15.0594 6.73038 15.081C6.11264 15.0853 5.83185 14.8694 5.78433 14.0097C5.74545 13.3056 6.06944 12.9816 6.71742 12.9816C11.7933 12.9816 16.8648 12.9859 21.9406 12.9816C22.3337 12.9816 22.6966 12.9945 22.8694 13.4352C23.0595 13.9276 23.0811 14.4287 22.7268 14.8348C22.5886 14.9946 22.2776 15.0637 22.0443 15.0637C19.4783 15.081 16.9123 15.0724 14.342 15.0724ZM14.3809 19.3966H6.73038C6.07376 19.3966 5.76273 19.0899 5.78865 18.3728C5.81889 17.6254 6.05216 17.2971 6.7347 17.2971C11.8192 17.3144 16.908 17.3058 21.9925 17.3058C22.675 17.3058 23.0076 17.6427 23.0033 18.3339C23.0033 19.0639 22.688 19.4009 21.9838 19.4009C19.4524 19.4009 16.9166 19.3966 14.3809 19.3966ZM14.3463 21.6343H22.0011C22.688 21.6343 23.0292 21.9496 22.9947 22.6624C22.9558 23.4097 22.7225 23.7337 21.9838 23.7294C16.8821 23.7164 11.776 23.7207 6.67422 23.7251C6.11264 23.7251 5.93985 23.5652 5.81025 22.9129C5.6461 22.1138 6.03056 21.6299 6.82974 21.6299C9.33094 21.6299 11.8365 21.6299 14.3463 21.6343ZM14.3247 28.0492C11.8192 28.0492 9.30934 28.0276 6.80382 28.0622C6.04352 28.0708 5.79297 27.7685 5.79297 26.9261C5.79297 26.1787 6.07808 25.9628 6.82974 25.9628H22.0486C22.675 25.9628 22.9947 26.3083 23.0076 26.9995C23.0206 27.6691 22.6836 28.0579 22.0702 28.0579C19.4869 28.0536 16.9037 28.0536 14.3247 28.0492Z" fill="white"/>
</svg>
