<svg width="45" height="30" viewBox="0 0 45 30" fill="none" xmlns="http://www.w3.org/2000/svg">
<path d="M44.0055 6.53059C37.9076 4.58407 31.8018 2.65348 25.6991 0.723889C25.2852 0.593021 24.8714 0.462158 24.4575 0.331295C24.1812 0.24422 23.9049 0.159818 23.6307 0.076037C23.5476 0.0506533 23.4647 0.0253266 23.382 0H23.202C23.1187 0.0249606 23.0366 0.0510556 22.9545 0.0771507C22.8724 0.103246 22.7903 0.129341 22.707 0.154301C21.4524 0.539602 20.1972 0.923032 18.9421 1.30644C16.8117 1.95719 14.6816 2.60789 12.555 3.26757C9.216 4.30229 5.8815 5.35064 2.5515 6.40352C2.2995 6.48067 2.052 6.58959 1.836 6.73028C1.3095 7.07519 1.2555 7.61524 1.7415 8.01461C2.0385 8.25968 2.403 8.4639 2.772 8.57736C4.806 9.2218 6.849 9.839 8.8965 10.4471C9.0495 10.4925 9.288 10.4244 9.4275 10.3201C9.64619 10.1563 9.85551 9.9778 10.0655 9.79875C10.2919 9.6057 10.519 9.41201 10.7595 9.23541C13.5405 7.15234 16.686 5.986 20.124 5.68647C21.215 5.59112 22.3177 5.62024 23.4179 5.6493C23.6791 5.6562 23.9402 5.66309 24.201 5.66832C24.9255 5.68647 25.38 6.21745 25.344 6.90727C25.3125 7.56078 24.7995 8.01007 24.0975 7.99192C23.9391 7.98907 23.7825 7.97725 23.6266 7.96549C23.5344 7.95853 23.4425 7.9516 23.3505 7.94654C20.178 7.77408 17.136 8.27783 14.2965 9.76639C13.7283 10.0668 13.1853 10.4138 12.6259 10.7712C12.3657 10.9375 12.1019 11.106 11.8305 11.2731C11.8794 11.306 11.9153 11.3311 11.9429 11.3504C11.9916 11.3845 12.0145 11.4006 12.0375 11.4093C12.96 11.695 13.8822 11.9819 14.8043 12.2687C17.2063 13.0158 19.6078 13.7627 22.014 14.4907C22.932 14.7721 23.8725 14.8175 24.822 14.5134C27.5967 13.6142 30.3732 12.7201 33.1499 11.8259C36.7631 10.6623 40.3767 9.49855 43.9875 8.32322C44.242 8.23971 44.4631 8.05503 44.685 7.86973C44.7887 7.78313 44.8925 7.69639 45 7.61978V7.17957C44.8984 7.11082 44.7995 7.03383 44.7004 6.95677C44.4791 6.78459 44.2573 6.61211 44.0055 6.53059ZM20.1195 7.62886C21.0567 7.53108 22.0032 7.55268 22.9507 7.5743C23.3225 7.58279 23.6944 7.59127 24.066 7.59255C24.5295 7.59709 24.8985 7.32933 24.9435 6.90727C24.9885 6.49883 24.714 6.18115 24.2505 6.09038C24.1515 6.06769 24.048 6.05407 23.949 6.04953C22.203 5.96331 20.466 5.98146 18.738 6.28553C14.2335 7.07519 10.539 9.23087 7.6815 12.8343C7.452 13.1202 7.2315 13.3153 6.849 13.3879C6.1155 13.5332 5.6385 14.0233 5.4405 14.754C5.2425 15.4846 5.4 16.1518 5.9625 16.651C6.273 16.9278 6.318 17.2183 6.291 17.5859C6.174 19.0926 5.6025 20.4359 4.7295 21.6204C3.87366 22.7776 2.96869 23.8988 2.06337 25.0205C1.68344 25.4912 1.30345 25.962 0.927 26.4355C0.87975 26.4945 0.8325 26.5524 0.78525 26.6102C0.738 26.6681 0.69075 26.726 0.6435 26.785C2.601 25.4235 4.0365 23.6127 5.1435 21.5523C5.5395 21.5977 5.5215 21.7883 5.382 22.0198C5.21422 22.2921 5.05057 22.5683 4.8868 22.8446C4.51029 23.48 4.13312 24.1164 3.7035 24.711C2.6685 26.1541 1.449 27.4203 0 28.4505V28.5367C0.214876 28.6633 0.430555 28.7891 0.646019 28.9147C0.940447 29.0864 1.23447 29.2578 1.5255 29.4308C1.56144 29.3966 1.59117 29.3704 1.61628 29.3482C1.64777 29.3205 1.67197 29.2992 1.692 29.2765C2.988 27.7652 4.1895 26.1859 5.022 24.357C5.139 24.1028 5.2515 23.9349 5.5485 24.1981C4.968 26.2631 4.0995 28.1873 2.6055 29.8665C2.73856 29.8838 2.86253 29.9029 2.98043 29.9211C3.23335 29.9602 3.45838 29.995 3.6855 29.9981C4.914 30.0298 5.94 29.6758 6.507 28.4641C6.57311 28.3254 6.6449 28.1902 6.71645 28.0555C6.82509 27.8509 6.93318 27.6474 7.02 27.4339C8.361 24.1437 8.9775 20.7445 8.532 17.1774C8.514 17.005 8.586 16.769 8.6985 16.6374C9.333 15.8931 9.4455 15.0126 8.9235 14.1912C8.7705 13.9552 8.793 13.8191 8.955 13.6194C11.8575 10.0705 15.6015 8.08722 20.1195 7.62432V7.62886ZM11.772 17.2228C12.0366 17.3497 12.3005 17.4798 12.5645 17.6099C13.4049 18.0241 14.2468 18.439 15.12 18.7567C19.0395 20.1818 23.0625 20.4177 27.1395 19.6508C29.7945 19.1516 32.292 18.2167 34.6275 16.8507C34.8795 16.7054 34.992 16.5784 34.893 16.2698C34.782 15.9248 34.695 15.5719 34.608 15.2189C34.5645 15.0424 34.521 14.8659 34.4745 14.6904C34.3841 14.3359 34.2923 13.9829 34.2007 13.6304C34.1281 13.3512 34.0556 13.0723 33.984 12.7934C33.9208 12.8062 33.8886 12.81 33.8658 12.8127C33.8561 12.8138 33.848 12.8148 33.84 12.8161C33.0382 13.0331 32.237 13.2507 31.4361 13.4682C29.2883 14.0517 27.142 14.6347 24.9885 15.2033C24.282 15.3939 23.5665 15.5436 22.824 15.3712C22.3355 15.2583 21.8458 15.1499 21.3561 15.0415C20.4473 14.8404 19.538 14.6391 18.6345 14.4091C17.2231 14.054 15.8182 13.6772 14.4108 13.2997C13.7855 13.132 13.1596 12.9641 12.5325 12.798C12.5243 12.8146 12.5149 12.8299 12.5058 12.8448C12.49 12.8705 12.4752 12.8946 12.4695 12.9205C12.4313 13.0768 12.393 13.2331 12.3548 13.3894C12.0775 14.522 11.8001 15.6551 11.547 16.7917C11.52 16.9142 11.6505 17.1638 11.772 17.2228ZM11.4705 17.9852L11.4675 17.9946C11.187 18.8748 11.1849 18.8813 11.862 19.4647C13.158 20.5857 14.5845 21.5115 16.128 22.2421C18.882 23.5446 21.7665 24.1165 24.795 23.7125C28.62 23.1997 31.8825 21.4842 34.731 18.9065C35.298 18.3937 35.3115 18.2575 34.947 17.5813C27.2025 21.811 19.3995 22.1604 11.4705 17.9852Z" fill="white"/>
<path d="M44.0055 6.53059C37.9076 4.58407 31.8018 2.65348 25.6991 0.723889C25.2852 0.593021 24.8714 0.462158 24.4575 0.331295C24.1812 0.24422 23.9049 0.159818 23.6307 0.076037C23.5476 0.0506533 23.4647 0.0253266 23.382 0H23.202C23.1187 0.0249606 23.0366 0.0510556 22.9545 0.0771507C22.8724 0.103246 22.7903 0.129341 22.707 0.154301C21.4524 0.539602 20.1972 0.923032 18.9421 1.30644C16.8117 1.95719 14.6816 2.60789 12.555 3.26757C9.216 4.30229 5.8815 5.35064 2.5515 6.40352C2.2995 6.48067 2.052 6.58959 1.836 6.73028C1.3095 7.07519 1.2555 7.61524 1.7415 8.01461C2.0385 8.25968 2.403 8.4639 2.772 8.57736C4.806 9.2218 6.849 9.839 8.8965 10.4471C9.0495 10.4925 9.288 10.4244 9.4275 10.3201C9.64619 10.1563 9.85551 9.9778 10.0655 9.79875C10.2919 9.6057 10.519 9.41201 10.7595 9.23541C13.5405 7.15234 16.686 5.986 20.124 5.68647C21.215 5.59112 22.3177 5.62024 23.4179 5.6493C23.6791 5.6562 23.9402 5.66309 24.201 5.66832C24.9255 5.68647 25.38 6.21745 25.344 6.90727C25.3125 7.56078 24.7995 8.01007 24.0975 7.99192C23.9391 7.98907 23.7825 7.97725 23.6266 7.96549C23.5344 7.95853 23.4425 7.9516 23.3505 7.94654C20.178 7.77408 17.136 8.27783 14.2965 9.76639C13.7283 10.0668 13.1853 10.4138 12.6259 10.7712C12.3657 10.9375 12.1019 11.106 11.8305 11.2731C11.8794 11.306 11.9153 11.3311 11.9429 11.3504C11.9916 11.3845 12.0145 11.4006 12.0375 11.4093C12.96 11.695 13.8822 11.9819 14.8043 12.2687C17.2063 13.0158 19.6078 13.7627 22.014 14.4907C22.932 14.7721 23.8725 14.8175 24.822 14.5134C27.5967 13.6142 30.3732 12.7201 33.1499 11.8259C36.7631 10.6623 40.3767 9.49855 43.9875 8.32322C44.242 8.23971 44.4631 8.05503 44.685 7.86973C44.7887 7.78313 44.8925 7.69639 45 7.61978V7.17957C44.8984 7.11082 44.7995 7.03383 44.7004 6.95677C44.4791 6.78459 44.2573 6.61211 44.0055 6.53059ZM20.1195 7.62886C21.0567 7.53108 22.0032 7.55268 22.9507 7.5743C23.3225 7.58279 23.6944 7.59127 24.066 7.59255C24.5295 7.59709 24.8985 7.32933 24.9435 6.90727C24.9885 6.49883 24.714 6.18115 24.2505 6.09038C24.1515 6.06769 24.048 6.05407 23.949 6.04953C22.203 5.96331 20.466 5.98146 18.738 6.28553C14.2335 7.07519 10.539 9.23087 7.6815 12.8343C7.452 13.1202 7.2315 13.3153 6.849 13.3879C6.1155 13.5332 5.6385 14.0233 5.4405 14.754C5.2425 15.4846 5.4 16.1518 5.9625 16.651C6.273 16.9278 6.318 17.2183 6.291 17.5859C6.174 19.0926 5.6025 20.4359 4.7295 21.6204C3.87366 22.7776 2.96869 23.8988 2.06337 25.0205C1.68344 25.4912 1.30345 25.962 0.927 26.4355C0.87975 26.4945 0.8325 26.5524 0.78525 26.6102C0.738 26.6681 0.69075 26.726 0.6435 26.785C2.601 25.4235 4.0365 23.6127 5.1435 21.5523C5.5395 21.5977 5.5215 21.7883 5.382 22.0198C5.21422 22.2921 5.05057 22.5683 4.8868 22.8446C4.51029 23.48 4.13312 24.1164 3.7035 24.711C2.6685 26.1541 1.449 27.4203 0 28.4505V28.5367C0.214876 28.6633 0.430555 28.7891 0.646019 28.9147C0.940447 29.0864 1.23447 29.2578 1.5255 29.4308C1.56144 29.3966 1.59117 29.3704 1.61628 29.3482C1.64777 29.3205 1.67197 29.2992 1.692 29.2765C2.988 27.7652 4.1895 26.1859 5.022 24.357C5.139 24.1028 5.2515 23.9349 5.5485 24.1981C4.968 26.2631 4.0995 28.1873 2.6055 29.8665C2.73856 29.8838 2.86253 29.9029 2.98043 29.9211C3.23335 29.9602 3.45838 29.995 3.6855 29.9981C4.914 30.0298 5.94 29.6758 6.507 28.4641C6.57311 28.3254 6.6449 28.1902 6.71645 28.0555C6.82509 27.8509 6.93318 27.6474 7.02 27.4339C8.361 24.1437 8.9775 20.7445 8.532 17.1774C8.514 17.005 8.586 16.769 8.6985 16.6374C9.333 15.8931 9.4455 15.0126 8.9235 14.1912C8.7705 13.9552 8.793 13.8191 8.955 13.6194C11.8575 10.0705 15.6015 8.08722 20.1195 7.62432V7.62886ZM11.772 17.2228C12.0366 17.3497 12.3005 17.4798 12.5645 17.6099C13.4049 18.0241 14.2468 18.439 15.12 18.7567C19.0395 20.1818 23.0625 20.4177 27.1395 19.6508C29.7945 19.1516 32.292 18.2167 34.6275 16.8507C34.8795 16.7054 34.992 16.5784 34.893 16.2698C34.782 15.9248 34.695 15.5719 34.608 15.2189C34.5645 15.0424 34.521 14.8659 34.4745 14.6904C34.3841 14.3359 34.2923 13.9829 34.2007 13.6304C34.1281 13.3512 34.0556 13.0723 33.984 12.7934C33.9208 12.8062 33.8886 12.81 33.8658 12.8127C33.8561 12.8138 33.848 12.8148 33.84 12.8161C33.0382 13.0331 32.237 13.2507 31.4361 13.4682C29.2883 14.0517 27.142 14.6347 24.9885 15.2033C24.282 15.3939 23.5665 15.5436 22.824 15.3712C22.3355 15.2583 21.8458 15.1499 21.3561 15.0415C20.4473 14.8404 19.538 14.6391 18.6345 14.4091C17.2231 14.054 15.8182 13.6772 14.4108 13.2997C13.7855 13.132 13.1596 12.9641 12.5325 12.798C12.5243 12.8146 12.5149 12.8299 12.5058 12.8448C12.49 12.8705 12.4752 12.8946 12.4695 12.9205C12.4313 13.0768 12.393 13.2331 12.3548 13.3894C12.0775 14.522 11.8001 15.6551 11.547 16.7917C11.52 16.9142 11.6505 17.1638 11.772 17.2228ZM11.4705 17.9852L11.4675 17.9946C11.187 18.8748 11.1849 18.8813 11.862 19.4647C13.158 20.5857 14.5845 21.5115 16.128 22.2421C18.882 23.5446 21.7665 24.1165 24.795 23.7125C28.62 23.1997 31.8825 21.4842 34.731 18.9065C35.298 18.3937 35.3115 18.2575 34.947 17.5813C27.2025 21.811 19.3995 22.1604 11.4705 17.9852Z" stroke="white"/>
</svg>
