<svg width="30" height="22" viewBox="0 0 30 22" fill="none" xmlns="http://www.w3.org/2000/svg">
<path d="M14.7515 13.6887C10.7131 11.7038 3.18821 8.0288 0.778197 6.85979C0.356531 6.65753 0.0171409 6.87007 0.0171409 7.3363V20.9188C0.0171409 21.385 0.394241 21.7655 0.860473 21.7655H29.1292C29.5955 21.7655 29.976 21.3884 29.976 20.9222V7.35345C29.976 6.88721 29.6366 6.67467 29.2184 6.88036C26.8255 8.05279 19.3864 11.7141 15.3994 13.6922C15.1594 13.8121 14.9811 13.8019 14.7515 13.6887ZM3.98012 5.82448C7.58656 7.58999 11.193 9.35893 14.8029 11.1142C14.94 11.1827 15.156 11.2033 15.2897 11.1382C20.1166 8.76929 24.9366 6.38327 29.76 4.00754C29.9349 3.92184 29.9966 3.82242 29.9966 3.62016C29.9897 2.91738 29.9966 1.67638 30 0.84676C30 0.380528 29.6195 0 29.1532 0H0.850189C0.383956 0 0 0.3771 0 0.84676C0 1.67981 0.00685636 2.92424 0.0171409 3.65444C0.0205691 3.771 0.147412 3.93898 0.257113 3.99383C1.49469 4.61433 2.73912 5.21426 3.98012 5.82448Z" fill="white"/>
</svg>
