<svg width="30" height="23" viewBox="0 0 30 23" fill="none" xmlns="http://www.w3.org/2000/svg">
<path d="M18.0219 15.564H11.9746V12.857H0V20.9408C0 21.6949 0.623929 22.3077 1.39184 22.3077H28.6047C29.3761 22.3077 30 21.6949 30 20.9408V12.857H18.0219V15.564ZM28.6013 3.41314H19.2698V0.450345C19.2698 -0.0614106 18.9373 0.00255877 18.9373 0.00255877H10.2331C10.2331 0.00255877 9.8663 0.0429609 9.8663 0.463812V3.41314H1.39184C0.623929 3.41314 0 4.0259 0 4.78007V10.8706H29.9966V4.78007C29.9966 4.0259 29.3761 3.41314 28.6013 3.41314ZM17.8505 3.41314H11.2924V1.0328H17.8505V3.41314Z" fill="white"/>
<path d="M18.0219 15.564H11.9746V12.857H0V20.9408C0 21.6949 0.623929 22.3077 1.39184 22.3077H28.6047C29.3761 22.3077 30 21.6949 30 20.9408V12.857H18.0219V15.564ZM28.6013 3.41314H19.2698V0.450345C19.2698 -0.0614106 18.9373 0.00255877 18.9373 0.00255877H10.2331C10.2331 0.00255877 9.8663 0.0429609 9.8663 0.463812V3.41314H1.39184C0.623929 3.41314 0 4.0259 0 4.78007V10.8706H29.9966V4.78007C29.9966 4.0259 29.3761 3.41314 28.6013 3.41314ZM17.8505 3.41314H11.2924V1.0328H17.8505V3.41314Z" stroke="white"/>
</svg>
